<svg width="24" height="24" viewBox="0 0 24 24" fill="none" xmlns="http://www.w3.org/2000/svg">
<path d="M13.25 3.25H3.25C2.54688 3.25 2 3.83594 2 4.5V19.5C2 20.2031 2.54688 20.75 3.25 20.75H12.3125C12.7031 21.2188 13.1328 21.6484 13.6016 22C13.4844 22 13.3672 22 13.25 22H3.25C1.84375 22 0.75 20.9062 0.75 19.5V4.5C0.75 3.13281 1.84375 2 3.25 2H13.25C14.6172 2 15.75 3.13281 15.75 4.5V9.77344C15.2812 9.89062 14.8906 10.0469 14.5 10.2812V4.5C14.5 3.83594 13.9141 3.25 13.25 3.25ZM3.25 7.625C3.25 7.3125 3.52344 7 3.875 7H12.625C12.9375 7 13.25 7.3125 13.25 7.625C13.25 7.97656 12.9375 8.25 12.625 8.25H3.875C3.52344 8.25 3.25 7.97656 3.25 7.625ZM3.875 10.75H11.375C11.6875 10.75 12 11.0625 12 11.375C12 11.7266 11.6875 12 11.375 12H3.875C3.52344 12 3.25 11.7266 3.25 11.375C3.25 11.0625 3.52344 10.75 3.875 10.75ZM3.875 14.5H8.875C9.1875 14.5 9.5 14.8125 9.5 15.125C9.5 15.4766 9.1875 15.75 8.875 15.75H3.875C3.52344 15.75 3.25 15.4766 3.25 15.125C3.25 14.8125 3.52344 14.5 3.875 14.5ZM22 16.375C22 14.8125 21.1406 13.4062 19.8125 12.625C18.4453 11.8047 16.7656 11.8047 15.4375 12.625C14.0703 13.4062 13.25 14.8125 13.25 16.375C13.25 17.9766 14.0703 19.3828 15.4375 20.1641C16.7656 20.9844 18.4453 20.9844 19.8125 20.1641C21.1406 19.3828 22 17.9766 22 16.375ZM12 16.375C12 14.3828 13.0547 12.5469 14.8125 11.5312C16.5312 10.5156 18.6797 10.5156 20.4375 11.5312C22.1562 12.5469 23.25 14.3828 23.25 16.375C23.25 18.4062 22.1562 20.2422 20.4375 21.2578C18.6797 22.2734 16.5312 22.2734 14.8125 21.2578C13.0547 20.2422 12 18.4062 12 16.375ZM17.625 15.125C17.0781 15.125 16.6875 14.7344 16.6875 14.1875C16.6875 13.6797 17.0781 13.25 17.625 13.25C18.1328 13.25 18.5625 13.6797 18.5625 14.1875C18.5625 14.7344 18.1328 15.125 17.625 15.125ZM16.375 18.875C16.375 18.5625 16.6484 18.25 17 18.25V17C16.6484 17 16.375 16.7266 16.375 16.375C16.375 16.0625 16.6484 15.75 17 15.75H17.625C17.9375 15.75 18.25 16.0625 18.25 16.375V18.25C18.5625 18.25 18.875 18.5625 18.875 18.875C18.875 19.2266 18.5625 19.5 18.25 19.5H17.625H17C16.6484 19.5 16.375 19.2266 16.375 18.875Z" fill="#181C21" fill-opacity="0.56"/>
</svg>
