<svg width="17" height="24" viewBox="0 0 17 24" fill="none" xmlns="http://www.w3.org/2000/svg">
<path d="M13.5 20.75C14.1641 20.75 14.75 20.2031 14.75 19.5V9.5H10.375C9.32031 9.5 8.5 8.67969 8.5 7.625V3.25H3.5C2.79688 3.25 2.25 3.83594 2.25 4.5V19.5C2.25 20.2031 2.79688 20.75 3.5 20.75H13.5ZM10.375 8.25H14.7109C14.6719 8.17188 14.6328 8.05469 14.5547 7.97656L10.0234 3.44531C9.94531 3.36719 9.82812 3.32812 9.75 3.28906V7.625C9.75 7.97656 10.0234 8.25 10.375 8.25ZM3.5 2H9.59375C10.0625 2 10.5703 2.23438 10.9219 2.58594L15.4141 7.07812C15.7656 7.42969 16 7.9375 16 8.40625V19.5C16 20.9062 14.8672 22 13.5 22H3.5C2.09375 22 1 20.9062 1 19.5V4.5C1 3.13281 2.09375 2 3.5 2ZM4.125 4.5H6.625C6.9375 4.5 7.25 4.8125 7.25 5.125C7.25 5.47656 6.9375 5.75 6.625 5.75H4.125C3.77344 5.75 3.5 5.47656 3.5 5.125C3.5 4.8125 3.77344 4.5 4.125 4.5ZM4.125 7H6.625C6.9375 7 7.25 7.3125 7.25 7.625C7.25 7.97656 6.9375 8.25 6.625 8.25H4.125C3.77344 8.25 3.5 7.97656 3.5 7.625C3.5 7.3125 3.77344 7 4.125 7ZM6.23438 16.9219C6 17.7422 5.25781 18.25 4.4375 18.25H4.125C3.77344 18.25 3.5 17.9766 3.5 17.625C3.5 17.3125 3.77344 17 4.125 17H4.4375C4.71094 17 4.94531 16.8438 5.02344 16.5703L5.60938 14.6562C5.72656 14.1875 6.15625 13.875 6.625 13.875C7.05469 13.875 7.48438 14.1875 7.60156 14.6172L8.10938 16.2969C8.38281 15.9453 8.77344 15.75 9.20312 15.75C9.75 15.75 10.2578 16.0625 10.5312 16.5703L10.7266 17H12.875C13.1875 17 13.5 17.3125 13.5 17.625C13.5 17.9766 13.1875 18.25 12.875 18.25H10.375C10.1406 18.25 9.90625 18.1328 9.78906 17.9375L9.39844 17.1172C9.35938 17.0781 9.28125 17 9.20312 17C9.16406 17 9.08594 17.0391 9.04688 17.1172L8.34375 18.0156C8.22656 18.2109 7.99219 18.2891 7.75781 18.25C7.52344 18.2109 7.32812 18.0547 7.25 17.8203L6.625 15.6328L6.23438 16.9219Z" fill="#181C21" fill-opacity="0.56"/>
</svg>
